<?xml version="1.0" encoding="UTF-8"?>
<svg id="Camada_2" data-name="Camada 2" xmlns="http://www.w3.org/2000/svg" viewBox="0 0 361.47 255.63">
  <defs>
    <style>
      .cls-1 {
        fill: #eb5b27;
      }

      .cls-2 {
        fill: #f9b03c;
      }

      .cls-3 {
        fill: #1d1d1b;
      }

      .cls-4 {
        fill: #040505;
      }

      .cls-5 {
        fill: #010101;
      }

      .cls-6 {
        fill: #596d4b;
      }
    </style>
  </defs>
  <g id="Camada_1-2" data-name="Camada 1">
    <g>
      <g>
        <path class="cls-5" d="M11.05,204.94S-1.45,210.57.14,221.13c0,0-.18,12.32,12.67,15.14l14.08.18s3.34,1.23,2.82,5.46c0,0,0,2.82-3.52,3.52l-26.05-.18s1.41,10.38,8.27,10.38h21.12s11.97-2.46,11.62-16.9c0,0-1.76-11.26-12.32-14.08H11.93s-3.17-8.45,3.17-8.45h12.67c10.56-3.52,8.1-11.26,8.1-11.26H11.05Z"/>
        <path class="cls-5" d="M61.21,255.22s10.03-2.94,8.62-11.91h-9.33l7.22-14.08,11.26,22s4.58,5.63,14.43,3.52l-26.05-49.81-25.34,49.81,19.18.47Z"/>
        <path class="cls-5" d="M108.29,245.95l.53-19.01,23.76,25.92s3.17,3.19,7.39,2.36v-51.63c-9.24-.11-11.09,9.09-11.09,9.09v19.27s-16.9-16.9-22.18-23.23-9.5-5.02-9.5-5.02v51.51s9.24.23,11.09-9.27Z"/>
        <path class="cls-5" d="M191.45,203.59c-1.58,9.66-8.56,11.47-8.56,11.47h-9.39v31.15c-3.96,10.3-11.09,9.01-11.09,9.01v-40.16h-16.9c.26-10.03,8.71-11.47,8.71-11.47h37.22Z"/>
        <path class="cls-5" d="M207.03,212.69v42.67c-8.98-2.47-10.03-10.73-10.03-10.73v-41.04s8.18-1.47,10.03,9.09Z"/>
        <path class="cls-5" d="M234.48,255.28c6.86-3.61,6.6-12.23,6.6-12.23h-8.98l7.13-13.57s7.39,15.42,10.82,20.7,14.78,5.1,14.78,5.1l-25.87-51.75-25.34,51.75h20.86Z"/>
        <path class="cls-5" d="M295.73,213.48l-9.77.53s-8.45,1.58-11.35,6.6c0,0-4.49,11.62,1.32,17.69,0,0,6.6,8.45,16.63,3.7l-.53-8.45-10.3-.26c.53-9.5,7.39-10.03,7.39-10.03h15.05v25.08s-10.56,5.54-21.02,5.54-18.32-12.67-18.32-12.67c0,0-6.07-11.35,0-24.29s18.22-13.38,18.22-13.38h21.12s-2.11,10.74-8.45,9.95Z"/>
        <path class="cls-5" d="M335.2,202.21c-14.51,0-26.27,11.76-26.27,26.27s11.76,26.27,26.27,26.27,26.27-11.76,26.27-26.27-11.76-26.27-26.27-26.27ZM335.53,242.39c-7.76,0-14.06-6.29-14.06-14.06s6.29-14.06,14.06-14.06,14.06,6.29,14.06,14.06-6.29,14.06-14.06,14.06Z"/>
      </g>
      <path class="cls-4" d="M181.03,32.92c-.18.81-.38,1.61-.59,2.41.16-.82.25-1.67.27-2.54.1.06.21.1.32.13Z"/>
      <path class="cls-4" d="M180.35,79.19c.25.1.51.19.76.27-.25-.07-.5-.13-.75-.2,0-.02,0-.05-.01-.07Z"/>
      <path class="cls-4" d="M180.89,49.92c-.11-.01-.21-.02-.32-.03,0-.02.01-.03.02-.05.1.03.2.05.3.08Z"/>
      <g>
        <path class="cls-6" d="M252.86,124.91c-.05,1.41-.5,1.86-1.97,1.84-7.91-.11-15.82-.17-23.73-.1-1.92.02-2.31-.39-2.12-2.37,1.14-11.9-2.86-21.77-12.05-29.49-.71-.16-1.29-.48-1.56-1.21-2.97-2.26-6.16-3.87-9.56-4.91-.03,0-.06-.01-.09-.02-.23-.07-.45-.14-.69-.2-.24-.08-.47-.16-.71-.25-5.13-1.94-8.83-6.89-8.97-12.78-.19-7.72,5.84-14.14,13.46-14.32.51-.01,1.01,0,1.51.05.1,0,.2.02.29.03,1.57.39,3.12.85,4.65,1.37,20.38,6.91,36.49,24.63,40.53,46.54.97,5.24,1.18,10.5,1,15.8Z"/>
        <path class="cls-1" d="M175.84,132.95c-12.17,11.64-25.05,17.52-41.86,17.73-.36,0-1.99.08-2.68.17-.22.03-.32.06-.61-.02-.23-.07-.58-.06-.82-.09-3.05-.44-2.91-.75-2.91-4.1,0-7.53.03-15.05-.03-22.58-.01-1.43.39-1.74,1.79-1.58,18.38,2.15,34.85-10.54,37.38-28.76.02-.13.01-.26.03-.39.14-1.54-.51-3.66.61-4.47,1.04-.76,3.02-.26,4.58-.26,6.81-.01,13.61,0,20.42,0q2.46,0,2.34,2.42c-.77,15.28-5.99,28.73-16.48,40.01-.13.14-.28.4-.4.56-.34.28-.38.45-.8.83-.2.18-.36.34-.56.53Z"/>
        <path class="cls-4" d="M165.78,36.06c-3.45,13.48-15.98,22.82-29.74,22-14.17-.84-25.56-11.46-27.28-25.43-1.87-15.23,8.18-28.88,22.8-32.03,1.28-.28,2.59-.47,3.93-.58.64-.05,1.04,0,1.29.23l-.02.15s0,.02,0,.03c-.05.66-1.02,12.58-.6,15.92,1.13,9.14,7.53,15.68,28.56,17.8,1.12.05,1.44.36,1.05,1.92Z"/>
        <path class="cls-2" d="M199.45,43.86c0,.23,0,.45,0,.68-.02.81-.1,1.61-.25,2.38,0,0,0,.02,0,.02-.22.83-.45,1.66-.71,2.47-4.36,14.19-13.38,25.69-27.19,34.33-11.23,7.04-23.64,9.62-36.81,8.75-1.07-.07-1.5-.31-1.5-1.48.08-8.52.15-17.03.1-25.55-.01-1.74.85-1.34,1.88-1.23,9.19,1.06,17.52-1.07,24.86-6.79.1-.64.81-.5,1.12-.86,5.87-4.75,9.44-10.86,11.32-17.99.07.01.14.02.21.03,2.09-4.99,6.91-8.55,12.6-8.68,7.75-.19,14.19,6.04,14.38,13.9Z"/>
      </g>
      <path class="cls-4" d="M181.11,35.35c-.17.91-.42,1.79-.75,2.63.27-.87.52-1.75.75-2.63Z"/>
      <g>
        <path class="cls-3" d="M16.7,193.89c-1.42-.79-2.54-1.89-3.36-3.28s-1.23-2.96-1.23-4.7.41-3.31,1.23-4.7,1.94-2.49,3.36-3.28c1.42-.79,3.02-1.19,4.79-1.19,1.31,0,2.52.21,3.62.63,1.1.42,2.04,1.05,2.82,1.87l-.83.85c-1.45-1.43-3.3-2.15-5.56-2.15-1.52,0-2.89.35-4.14,1.03-1.24.69-2.21,1.64-2.92,2.86-.71,1.22-1.06,2.57-1.06,4.07s.35,2.86,1.06,4.07c.71,1.21,1.68,2.17,2.92,2.86,1.24.69,2.62,1.03,4.14,1.03,2.24,0,4.09-.72,5.56-2.17l.83.85c-.78.83-1.72,1.46-2.83,1.89-1.11.43-2.31.65-3.61.65-1.78,0-3.37-.4-4.79-1.19Z"/>
        <path class="cls-3" d="M71.13,176.86h1.32v16.9h10.42v1.19h-11.73v-18.09Z"/>
        <path class="cls-3" d="M127.81,172.34h1.86l-4.06,3.05h-1.4l3.59-3.05ZM125.02,176.86h1.32v18.09h-1.32v-18.09Z"/>
        <path class="cls-3" d="M186.15,176.86v18.09h-1.09l-12.33-15.72v15.72h-1.32v-18.09h1.11l12.3,15.72v-15.72h1.32Z"/>
        <path class="cls-3" d="M231.23,176.86h1.32v18.09h-1.32v-18.09Z"/>
        <path class="cls-3" d="M280.48,193.89c-1.42-.79-2.54-1.89-3.36-3.28s-1.23-2.96-1.23-4.7.41-3.31,1.23-4.7,1.94-2.49,3.36-3.28c1.42-.79,3.02-1.19,4.79-1.19,1.31,0,2.52.21,3.62.63,1.1.42,2.04,1.05,2.82,1.87l-.83.85c-1.45-1.43-3.3-2.15-5.56-2.15-1.52,0-2.89.35-4.14,1.03-1.24.69-2.21,1.64-2.92,2.86-.71,1.22-1.06,2.57-1.06,4.07s.35,2.86,1.06,4.07,1.68,2.17,2.92,2.86c1.24.69,2.62,1.03,4.14,1.03,2.24,0,4.09-.72,5.56-2.17l.83.85c-.78.83-1.72,1.46-2.83,1.89-1.11.43-2.31.65-3.61.65-1.78,0-3.37-.4-4.79-1.19Z"/>
        <path class="cls-3" d="M345.6,189.86h-10.49l-2.3,5.09h-1.42l8.32-18.09h1.32l8.32,18.09h-1.42l-2.33-5.09ZM345.11,188.75l-4.76-10.44-4.73,10.44h9.49Z"/>
      </g>
    </g>
  </g>
</svg>